<svg id="Layer_1" data-name="Layer 1" xmlns="http://www.w3.org/2000/svg" viewBox="0 0 800.67 369.19"><defs><style>.cls-1{fill:#fff;}</style></defs><path class="cls-1" d="M800.12-490.18c2.1,3.3-2,4.86-2.12,7.6-.25,5.32-2.13,10.28-3.89,15.25a105.51,105.51,0,0,0-5.61,24,33.55,33.55,0,0,1-3.45,11.58,20.07,20.07,0,0,0-2,9c-.07,3.42.34,7-1.49,10.18a2.84,2.84,0,0,0-.29,2.35c3,4.34-.29,8.22-.69,12.3-.57,5.83-.81,11.7-1.14,17.56,0,.63.56,1.48.3,1.89-4,6.37-1.92,13.84-3.79,20.67-1.41,5.17,0,11-.8,16.51-.74,5.21-1.7,10.5-1.43,15.7.5,9.74,0,19.54,1.77,29.22.53,3,2.22,1.46,3,.78,2.79-2.43,6.1-4.12,8.77-6.75,7.58-7.46,8.36-7.64,17.49-10.46,2-.61,2.84.42,3.79,1.44,5.55,5.95,5.47,14.25.77,20.87-4.51,6.34-10.22,10.57-16.74,14.83-10.24,6.7-21.23,8.24-32.38,7.53-6.2-.4-12.65-3.45-18.77-6.16-6.49-2.88-9.19-8.5-13-13.6-5.85-7.84-7.12-17-9-26.11A130.13,130.13,0,0,1,717-340.5c0-1.78,0-3.13,1.09-4.5a3.87,3.87,0,0,0,.61-4.23c-2.55-4.67-1.31-9.41-.62-14.17.92-6.4,3.55-13.16,2.31-19.12-1.36-6.59,1-12.53,1.21-18.59.19-5.71.62-12.47,2.94-18.17,1.1-2.71,0-4.89-.21-6.92-.75-7.7,3.93-14.57,2.65-22.18-.18-.77-.78-1.85-.48-2.26,3.48-4.7.41-11.11,4.16-15.73.21-.25-.35-1.13-.55-1.72,1.14-3.67,3.61-7.51,3.16-11-.93-7.11,3.68-12.39,4.72-18.83,1.38-8.61,4.84-16.89,7.43-25.3,1.46-4.72,1.79-10.48,4.78-13.9,4.06-4.65,4.3-10.36,6.91-15.3,3.83-7.27,6.15-15.27,11.46-21.89,2.13-2.66,4.7-5.65,4.54-9.64,5.18-2,4.55-7.89,7.53-11.47,3.62-4.35,7.07-8.75,11.91-11.84a7.12,7.12,0,0,0,1.51-1.28c6.38-7.44,15.06-9.2,24.2-9.84,3.49,1.92,7.82,1.06,11,2.43a34.05,34.05,0,0,1,17,16.3c1,2,2.28,3.72,2.85,6.13,1.39,5.92,4.27,11.46,4.16,18.63,2.12-2.27,2-4.12,3-5.67,2.47-4,4.33-8.32,6.71-12.42A100.25,100.25,0,0,1,875-609.88c1.63-.17,2.23-1.09,1.94-2.67v-.09a163.33,163.33,0,0,1,23.38-20.74c5.26-1.67,9.85-5,16.19-3.33,6,1.6,11,9.2,7.28,14a52.62,52.62,0,0,1-12.59,12c-7.23,4.68-12.61,11-18.11,17.26-1,.5-2,.67-2.75,1.83-3.85,6.29-8,12.37-11.7,18.77-2.19,3.83-3.26,8.32-5.51,12.12-3.22,5.46-3.16,12.23-7.23,17.24a10,10,0,0,0-1.78,6.39c.44,8.42-6.5,12.69-9.43,19.08-2.08,4.51-5.05,5.81-9.21,6a8,8,0,0,1-8.3-7.85,19.08,19.08,0,0,0-3.27-11.1c-2-3.11.12-7.67-3.08-10.59,1.09-7.23-1.76-14.24-1.24-21.51.13-1.72-2.55-.7-3.38.51-2,3-4.47,5.84-4,9.84-3.46,4.63-5.85,9.68-6,15.58-2,.94-2.46,2.89-3.13,4.77a193.22,193.22,0,0,0-7.77,27.18C804.22-500,800.56-495.63,800.12-490.18Zm2-90.78c-2.92,1.14-3.76,3.94-4.95,6.39-1.38,2.85-2,6.64-4.59,8.17-4.25,2.53-5.52,7.36-6.85,10.68a96.47,96.47,0,0,1-7.61,14.84c-1.32,2.12.84,3.41-.19,5.73-2.45,5.45-6.89,10.14-7.15,16.53-.84,1.2-2.39,2.4-2.39,3.61,0,7.05-4.29,12.8-5.69,19.54-1.45,7-4.09,14-5.63,21.11-2.6,1.91-1.7,4.61-1.35,7,.71,4.77-3.88,8.46-2.48,13.29-1.08,7.69-2.19,15.37-3.24,23.06-1.59,11.73-2.27,23.57-4.58,35.21-.6,3-1.1,6.46-.2,9.23,1.63,5-.1,10.08-.81,14.37-1.07,6.53-2,13-2.65,19.67a140.66,140.66,0,0,0,.33,27.55c.81,7.42,1.69,15.77,7,23,0-8.22-1-15.85.21-23.5.27-1.68,1.66-3,1.06-5-2.05-6.81.12-13.7.62-20.45.26-3.46-.74-7.06.68-10.63,2.78-7,3.49-14.78,3.31-22-.28-11.09,1.89-21.87,2.75-32.73,1.07-13.65,5.3-27,8.17-40.55a10.17,10.17,0,0,0,2.18-6.76c-.12-4.71,1.64-9.31,3.08-13.53,1.34-3.91,2.19-7.84,3.37-11.74,1.88-6.25,2.05-13,5.28-18.88,2.1-3.84,2.4-8.31,4.69-12.39,1.7-3,1.68-8,2.55-12.11,1-4.77,3.28-9.07,4.68-13.7,2.08-6.83,6.56-12.91,8.92-19.68,1.51-4.33,5.48-7.11,6.16-11.69,3.44-4.63,6.4-9.65,12-12.31,2.06-1,1.56-2.78-.45-3.64-2.28-1-4.45-1.58-6.63.77C808.28-588.86,804.78-585.28,802.14-581Zm78.21,64.62c3.51-6.49,7.56-12.75,10.38-19.52a50.37,50.37,0,0,1,15-19.73c4.3-3.56,8.86-5.27,14.42-3.67.71.21,1.61-.23,2.42-.37,5.37,4.06,8.59,9.78,7.93,16.15-.49,4.85.44,9.82-1.22,14.61-3.27,9.44-5,19.37-9,28.59-6.41,14.72-11.79,29.93-20.62,43.48-4.7,7.23-9.22,14.56-15.44,20.8-4.2,4.21-5.08,10.3-5.14,16.28a19.49,19.49,0,0,1-.82,6.89A3,3,0,0,0,880-409c1.66.82,2.85-.51,3.61-1.77,4.74-7.9,10.93-14.91,15.68-22.6,4.08-6.61,9.49-12.35,13-19.53,2-4.08,6.93-7.08,9.07-11.8.38-.83,10.48-.23,11.28.52a13.73,13.73,0,0,1,3.26,16.11c-5,11.47-10.14,22.9-12.84,35.21-.37,1.68-3.83,3-1.67,4.37,1.78,1.13,3.28-2,4.65-3.41,6.27-6.46,10.68-14.27,15.76-21.62,3.24-4.69,7.24-8.95,10.08-14,3-5.39,6.17-10.69,9.35-16a10.89,10.89,0,0,1,9.4-5.36c3.46-.11,5.1,2.43,7.25,4.92,6.22,7.17-.55,12.51-2.23,18.3-1.33,4.57-3.92,8.83-5.61,13.44s-3,9.23-4.29,13.87c-1.23,4.3-1.92,8.76-3,13.91,5.72-3.13,9.09-7.05,12.1-11.81,1.72-2.72,4.3-5.08,6-8.05,2-3.59,5.33-6.3,6.45-10.64.72-2.81,4.36-4.23,4.64-7.79.3-3.83,1.17-7.67,1.72-11.41.94-6.49-.48-13.58,3.36-19.58a2.8,2.8,0,0,0,.41-2.31c-2-9.32,1.62-18.31,4-26.66,2.86-10.21,4.59-21.19,10.13-30.55,4.7-8,7-17.36,14.71-23.58,3.28-2.65,6.55-3.88,10.56-3.21,5.33.89,10.67,8.52,10.18,15a249.11,249.11,0,0,1-3.42,26.29c-1.4,7.63-2.22,15.34-4.76,22.73-2.29,6.68-4.18,13.49-6.73,20.06-2,5.24-1.23,6.61,3.83,7.88,6.14,1.54,13,2.95,17.65,6.71,2.4,1.94,6.15,5.69,6.59,10.58.35,3.89,4,7.21,2.73,11.65-2.65,9.26-3.84,18.8-10,27.1-2.79,3.76-5.67,8-8.31,12-2.46,3.78-5.22,8.17-10.14,10-4,1.53-5,6.32-8.71,8.52-8.07,4.73-16.1,9.14-25.91,7.94-6.17-.75-13-7.17-13.77-13.13a5.37,5.37,0,0,0-2.5-4c-1.38-.78-1.95,1.37-3,1.94-4.93,2.63-8.28,7.85-14.49,8.43-5.94.57-11.8,2-16.25-4-2.07-2.79-7-2.92-7-7.95,0-1.77-2.09-.46-2.72,0-4.46,3.59-9.28,6.72-13.69,10.31-3.39,2.75-7.27,3.32-11,3.9-8.31,1.3-13.41-4.07-17.76-10.18-.58-.82-.41-2.19-.54-3-4.8,2.81-7.94,7.41-12.85,10.58-6,3.91-10.93,4.17-16.93,1.86-2.8-1.07-4.38-3.44-6.45-5.21-5.93-5.06-2.58-12.61-6.55-18.18-7.59,8.26-16.74,14.79-25.13,22.19a133.82,133.82,0,0,1-23.65,16.72c-1.77,1-3.38,2.06-5.55,1.48-3.1-.83-3.71-3.32-2.26-5.34a197.71,197.71,0,0,1,19.88-23c6.89-7.05,15-12.78,21.06-20.75,3.1-4.07,7.24-7.56,11.06-11.08,6.64-6.11,9.8-13.53,11.68-22.08,1.26-5.7,1.13-11.89,3.32-17.05,2.34-5.5,1.91-11.31,4-16.8a100.49,100.49,0,0,0,4.07-13.55C874.51-499.92,879.44-507.51,880.35-516.34Zm132,111.68c8.08-1.6,10.42-9.47,15.84-14a7,7,0,0,0,1.79-2.86c1.14-2.63,2-5.51,4.85-7.07,1.09-.59,3.24-11.54,2.74-12.67-.4-.91-1.37-.72-2-1.08-5-2.65-10.39,1.08-15.53-.83-1.52-.57-1.55,1.51-2.17,2.62-3.7,6.56-3.14,13.88-3.89,20.91C1013.44-414.58,1010.42-409.82,1012.4-404.66ZM887.52-472.19c9.91-22.81,20.39-45.42,24.56-70.22C898.15-521,891.92-496.91,887.52-472.19ZM405.88-593.41c2.67,0,4.63-1.79,6.24-3.39,2.83-2.82,5.69-3.61,9.22-1.88,1,.46,2.1,1,2.66,0,2.88-4.78,6.17-1.64,9.37-.65,1.37,1.36,3.14,0,4.69.75,6.75,3,13.73,16.2,12,23.58a14.29,14.29,0,0,0,.38,8.62c-4,5.77-5.19,12.62-7.13,19.17-.56.29-1.62.64-1.59.87.93,8.49-7.76,11.68-10.21,18.49-1.82,5-6.68,8.85-10.38,12.76s-9.18,6.28-13.52,9.85a31.39,31.39,0,0,1-9.9,5.31c-1.54.54-3.2.84-3.88,2.72a5.54,5.54,0,0,1-5.06,3.54c-8.18-.14-9.13,6.33-9.44,11.46-.42,7-4.18,12.91-4.9,19.71-.19,1.87-1.22,3.57-.51,5.66a4.69,4.69,0,0,1-.55,3.33c-4.86,8.88-5.45,18.85-7.6,28.45-1.75,7.81-4.5,15.4-7,23-2.76,8.47-5.8,16.84-8.56,25.31-1,3.1,1.8,5.42,2.48,8.26.87,3.57,3.81,7.12,4.71,10.39,2,7.24,6.23,13.25,8.83,20.08,2.32,6.09,8.19,9.77,12.84,14,2.67,2.42,6.92,0,10.16-1.67,5.79-3,12.12-5,17.05-9.77-2,8-4.28,15.54-10,21.52-2.63,2.76-6.14,2.95-9.54,3.44-6.32.91-12.73.65-19.12,1.47-5.56.71-11-3.64-16-7.94-6.76-5.87-7.72-14.9-13.71-20.89-.93-.93-.69-3.35-2.65-3a5,5,0,0,0-3.92,4.07c-.69,4.37-6.32,6.24-5.29,11.81.28,1.53-3.93,4-5.9,6.4-7.78,9.51-23.46,17.78-38.87,12.61-10.94-3.67-15.81-11-18.06-22-2.15-10.5.11-19.44,3.5-29.22,3.06-8.85,9.27-14.62,14.14-21.76,2.68-3.92,6.11-5.8,9.48-8.26a13.26,13.26,0,0,0,4.61-6.78c2.12-6.65,4.71-13.39,5.89-20,2-11.26,7.37-21.84,6.8-33.63-.16-3.43,3.25-6,3-9.92-.3-4.49-.71-9.31,3.55-12.68.24-.19.19-1,0-1.43-1.89-3.71-1-6.9,1.37-10.12,1-1.39,1.78-3.7.88-5s-2.63.55-4,.68c-7.9.82-15.17-.45-20.56-7.1a6,6,0,0,1-.44-7.4c1.6-2.46,1.9-6,6.73-5.9,5.86.07,11.13.9,15.83,4.33,2.06,1.5,4.58.34,6.47,1.94,1.64-6,3.61-11.41,5.49-16.86,1.78-5.15,6-9.79,5.08-15.88-.17-1.15-.23-2.74,1.54-3.28.43-.13,1.09-.62,1.08-.93-.19-5.8,6-8.26,7-13.47.27-1.39.92-3.24,2-3.86,6.38-3.71,9.44-10.63,15.24-15,8.55-6.49,17.28-12.63,26.41-18.24,5.4-3.32,11.06-5.45,17.55-4.49C403.35-592,404.87-591.85,405.88-593.41Zm17.77,25.26c2.59-1.29,1.54-3.91,2-5.93.11-.42-.61-3-1.91-1.29s-3.57.81-4.28,2.73a13.15,13.15,0,0,1-2.26,2.43A53.84,53.84,0,0,0,399.09-552c-5.7,9.42-7.88,19.41-11.21,29.59,6.68-2.14,10.41-7.57,15.82-10.36,2.55-1.31.92-5.09,3.75-5.14,3.07-.07,3.54-2.33,4.92-4.13,3.7-4.85,5.36-10.78,8.65-15.78C423.19-561.13,423.6-564.5,423.65-568.15Zm-78,86.91c-3.54-.38-5.84-.11-6.75,4.6-.57,3-.92,6.08-1.66,9.07-1.76,7-2.65,14.27-4,21.37-1.31,6.82-1,14-4.95,20.56-1.75,2.92-2.62,7.59-2.55,11.51a26.46,26.46,0,0,1-3.48,13c-.67,1.28-2.34,2.67-.88,3.89a18.57,18.57,0,0,0,6.72,3.76c1.84.5,2.58-1.82,3.06-3.34,1.46-4.68,2.33-9.6,4-14.14,3.64-10.15,6.09-20.56,8.83-30.93,1-3.57.81-7.43,2.59-10.76,2.32-4.35,4.63-8.67,3.07-13.88a1.57,1.57,0,0,1,.27-1.38c3.44-2.39,2.26-6.36,3.24-9.56.46-1.52,1.49-3.45-.32-5s-2.86.07-4.22.95C347.8-481,346.6-481.3,345.61-481.24ZM348-506c4-1,6.74-1.48,9.36-2.3,1.51-.47,3.25-1.42,3.45-3.05a92.88,92.88,0,0,1,4.83-21.34c2.27-6.05,0-13.36,5.43-18.48.52-.49,1.64-3,0-3.75s-1.72,1.56-2.4,2.54c-.55.79-.5,2.1-1.15,2.71-7.7,7.23-9.83,17.37-14.19,26.37C350.74-518,351.86-512,348-506ZM297.52-330.9c.27-.12.64-.17.81-.39,4.57-5.62,10.42-10.4,12.39-17.77.6-2.24,1-4.29,2.78-6.08,3.39-3.51,3.09-9,6.39-12.67a1.35,1.35,0,0,0-.16-1.33c-1.65-1.18-3.21-2.77-5.41-2.7a3.75,3.75,0,0,0-3.64,3.49c-1.22,8.67-5.57,16.23-8.67,24.2-1.55,4-1.32,9-5.47,11.8-.66.45-.35.8.07,1.1A3.66,3.66,0,0,0,297.52-330.9ZM533.08-477.64c1.33-4.34,7.68-4,8.39-9,0-.23,1-.63,1.3-.47,4.07,2.49,5.33-1.24,7.37-3.26,1.74,1.59,4.66-1.15,6.07,1.63a4.55,4.55,0,0,0,5.14,2.59c1.47-.17,2.39.77,3.09,2-.74,2.82,3.68,4.29,2.27,6.8-2.46,4.41.53,9.13-1.39,13.43-4.67,11.7-13.24,20.92-19.42,31.78,9.55-8.51,16.34-19.22,23.29-29.8,2.4-1.15-.8-3.31,1.13-5.05,3.74-3.35,4.74-8.29,5.89-13,.95-5.78,7.81-5.25,10.22-9.5.1-.17,1.19.17,1.79.38,7.18,2.47,14.21,4.74,20.63,9.46,5.55,4.07,12.77,5.9,16.6,12.39,4,7.06.28,12.2-4.31,17.08a1.6,1.6,0,0,0-.54,1.66c-2.4,4.31-3.19,8.57-1.12,13.44,4.36,10.26,11.79,18.47,18.21,27.26,8.31,11.35,15.49,23.47,24.12,34.58a39.83,39.83,0,0,0,4.81,5.54c2.09,1.84,3.81,4.12,1.78,6.27s-5.2,4.82-8.33,2.46c-11.49-8.62-24.49-15.12-34.48-25.93-5.76-6.22-10.53-13-15.77-19.56-7.52-9.33-12.24-19.78-16-30.76-1.29-3.78-2.1-8.46.81-12.73,1.08-1.59.38-4.4.53-7.69-3.94,2.7-5.54,6.24-7.53,9.08-4.91,7.06-9.09,14.46-14.66,21.26-5.89,7.19-12.77,13-19.63,18.75-5.41,4.51-12.34,7-20,8.06-6.77.91-9.85-3-13.89-6-2.41-1.8-4.24-2.11-6.63-.55A48.1,48.1,0,0,1,490.05-397c-3.65.29-4.4,4.85-6.69,7.29-5.78,6.12-12.21,11.11-20.95,11.8a7.45,7.45,0,0,1-5.74-2.44c-2.4-2.32-3.88-5.9-7.85-6.43-.54-.07-1.3-1.22-1.33-1.9-.31-7.13-2.76-14.06,1.67-21.33,3.7-6.05,7.1-12,13.25-15.65,3.11-1.83,7-3,10.57-2.23,2.65.6,3.95,0,4.6-2.12,1.14-3.64,3-7.05,3.43-10.92a6.78,6.78,0,0,1,.7-2.86c.78-1.24,2.58-2.74,1.07-3.74a4.9,4.9,0,0,0-5.5.43,13,13,0,0,1-10.1,3c-4.13-.58-5.3,2.25-6.82,5.27-4.45,8.83-9.34,17.34-17.37,23.67-2.6,2.06-4.62,5-7,7.38-8.33,8.48-17.47,13.38-30,13.08-9-.21-12.68-5.54-16.78-11.34-2.72-3.85-.52-8.36-.28-12.34.87-13.95,8.77-24.53,18.69-33.63a78.8,78.8,0,0,1,12.62-9.5c4.65-2.8,8.87-2.95,11.21.11,2.12,2.77,1,7.59-2.7,11-7,6.24-13.53,12.77-16.68,21.86a62.13,62.13,0,0,0-2.52,9.57c-.43,2.44.59,3.45,3.14,2,8.48-4.7,15.68-10.82,20.56-19.24,1.16-2,3.08-2.82,4.39-4.54,3.84-5,3-9.89.84-15.16-2.75-6.77-1.45-11.14,4.09-15.28,7.3-5.44,14.14-3.75,19.93,1.46,3.48,3.13,8.26,2.74,10.37.66,3.22-3.15,7.46-3.28,10.69-5.85,4.4-3.48,9.67-6,10.73-12.31.13-.77.94-.75,1.59-.9,9.21-2.06,16.63,2.6,18.79,11.83.1.46.34,1.08.14,1.38-4.12,6-3.18,13.36-4.73,20-2,8.47-4.95,16.9-4.87,26.55,4.91-3.51,10-7,11.47-11.79,1.33-4.19,2.51-8.49,3.87-12.78C523.36-462,529.52-469.13,533.08-477.64Zm-29.22,48,.16-.2-.26,0ZM495.33-636c.3,0,.42.86.89.22l-.87-.24ZM504-429.81l-.26,0,.1.23Z" transform="translate(-262.37 637.19)"/></svg>